# xmcd
#
# Track frame offsets: 
#        150
#        12723
#        25413
#        38258
#        51368
#        63210
#        75278
#        84445
#        96990
#        108220
#
# Disc length: 1603 seconds
#
# Revision: 2
# Processed by: cddbd v1.5.2PL0 Copyright (c) Steve Scherf et al.
# Submitted via: ExactAudioCopy v0.99pb5
#
DISCID=6d06410a
DTITLE=Various Artist - Billboard Top R&B Hits - 1960
DYEAR=1989
DGENRE=R&B
TTITLE0=Dinah Washington And Brook Benton - Baby (You've Got What It T
TTITLE0=akes)
TTITLE1=Jerry Butler - He Will Break Your Heart
TTITLE2=Jackie Wilson - Doggin' Around
TTITLE3=Buster Brown - Fannie Mae
TTITLE4=Barrett Strong - Money (That's What I Want)
TTITLE5=Brook Benton - Kiddio
TTITLE6=Fats Domino - Walking To New Orleans
TTITLE7=Bobby Marchan - There's Something On Your Mind
TTITLE8=Dinah Washington And Brook Benton - A Rockin' Good Way (To Mes
TTITLE8=s Around And Fall In Love)
TTITLE9=Marv Johnson - You Got What It Takes
EXTD=
EXTT0=Dinah Washington and Brook Benton\n
EXTT1=Jerry Butler\n
EXTT2=Jackie Wilson\n
EXTT3=Buster Brown\n
EXTT4=Barret Strong\n
EXTT5=Dinah Washington and Brook Benton\n
EXTT6=Fats Domino\n
EXTT7=Bobby Marchan\n
EXTT8=Dinah Washington and Brook Benton\n
EXTT9=Marv Johnson\n
PLAYORDER=
